<svg xmlns="http://www.w3.org/2000/svg" xmlns:xlink="http://www.w3.org/1999/xlink" width="500" zoomAndPan="magnify" viewBox="0 0 375 374.999991" height="500" preserveAspectRatio="xMidYMid meet" version="1.2"><defs><clipPath id="135c202503"><path d="M 44.195312 31.351562 L 341.722656 31.351562 L 341.722656 349.796875 L 44.195312 349.796875 Z M 44.195312 31.351562 "/></clipPath><clipPath id="1db9a38072"><path d="M 325.46875 39.148438 C 330.113281 39.148438 333.925781 42.960938 333.925781 47.605469 L 333.925781 333.480469 C 333.925781 338.125 330.113281 341.9375 325.46875 341.9375 L 60.449219 341.9375 C 55.804688 341.9375 51.992188 338.125 51.992188 333.480469 L 51.992188 47.605469 C 51.992188 42.960938 55.804688 39.148438 60.449219 39.148438 L 325.46875 39.148438 M 325.46875 31.351562 L 60.449219 31.351562 C 51.492188 31.351562 44.195312 38.648438 44.195312 47.605469 L 44.195312 333.480469 C 44.195312 342.4375 51.492188 349.734375 60.449219 349.734375 L 325.46875 349.734375 C 334.425781 349.734375 341.722656 342.4375 341.722656 333.480469 L 341.722656 47.605469 C 341.722656 38.648438 334.425781 31.351562 325.46875 31.351562 Z M 325.46875 31.351562 "/></clipPath><clipPath id="cf4d13089c"><path d="M 219 58 L 271 58 L 271 141 L 219 141 Z M 219 58 "/></clipPath><clipPath id="5a536e18dd"><path d="M 223.808594 47.476562 L 277.082031 63.042969 L 252.472656 147.269531 L 199.199219 131.707031 Z M 223.808594 47.476562 "/></clipPath><clipPath id="9eee4a3170"><path d="M 223.808594 47.476562 L 277.082031 63.042969 L 252.472656 147.269531 L 199.199219 131.707031 Z M 223.808594 47.476562 "/></clipPath><clipPath id="1337f8a7ce"><path d="M 228.460938 52 L 276.207031 65.949219 L 252.460938 147.230469 L 204.710938 133.28125 Z M 228.460938 52 "/></clipPath><clipPath id="210552aa99"><path d="M 231 69 L 250 69 L 250 88 L 231 88 Z M 231 69 "/></clipPath><clipPath id="eba2452ff0"><path d="M 223.808594 47.476562 L 277.082031 63.042969 L 252.472656 147.269531 L 199.199219 131.707031 Z M 223.808594 47.476562 "/></clipPath><clipPath id="038d78d967"><path d="M 223.808594 47.476562 L 277.082031 63.042969 L 252.472656 147.269531 L 199.199219 131.707031 Z M 223.808594 47.476562 "/></clipPath><clipPath id="840afbdef7"><path d="M 216 54 L 268 54 L 268 138 L 216 138 Z M 216 54 "/></clipPath><clipPath id="d04d7ce791"><path d="M 223.808594 47.476562 L 277.082031 63.042969 L 252.472656 147.269531 L 199.199219 131.707031 Z M 223.808594 47.476562 "/></clipPath><clipPath id="991c3f7335"><path d="M 223.808594 47.476562 L 277.082031 63.042969 L 252.472656 147.269531 L 199.199219 131.707031 Z M 223.808594 47.476562 "/></clipPath></defs><g id="1ae0a79e20"><g style="fill:#8c52ff;fill-opacity:0.4;"><g transform="translate(130.90791, 317.079733)"><path style="stroke:none" d="M 112.375 -167.09375 C 114.425781 -167.125 115.46875 -166.351562 115.5 -164.78125 C 115.507812 -164.15625 115.316406 -163.640625 114.921875 -163.234375 C 114.535156 -162.835938 114.191406 -162.242188 113.890625 -161.453125 C 110.566406 -153.992188 108.082031 -145.65625 106.4375 -136.4375 C 104.789062 -127.21875 103.691406 -118.039062 103.140625 -108.90625 C 102.597656 -99.78125 102.390625 -91.601562 102.515625 -84.375 C 102.648438 -77.289062 103.148438 -69.195312 104.015625 -60.09375 C 104.890625 -51 106.3125 -41.828125 108.28125 -32.578125 C 110.25 -23.335938 113.03125 -15.050781 116.625 -7.71875 C 116.945312 -6.945312 117.304688 -6.40625 117.703125 -6.09375 C 118.109375 -5.78125 118.316406 -5.234375 118.328125 -4.453125 C 118.359375 -2.878906 117.347656 -2.078125 115.296875 -2.046875 C 111.523438 -1.972656 107.117188 -2.046875 102.078125 -2.265625 C 97.046875 -2.492188 92.566406 -2.570312 88.640625 -2.5 C 84.867188 -2.4375 80.46875 -2.203125 75.4375 -1.796875 C 70.414062 -1.398438 65.9375 -1.164062 62 -1.09375 C 59.488281 -1.050781 58.21875 -1.816406 58.1875 -3.390625 C 58.164062 -4.804688 59.015625 -5.765625 60.734375 -6.265625 C 65.898438 -7.773438 70.035156 -11.738281 73.140625 -18.15625 C 76.253906 -24.582031 78.601562 -31.976562 80.1875 -40.34375 C 80.414062 -44.75 79.859375 -49.335938 78.515625 -54.109375 C 77.179688 -58.878906 75.140625 -63.320312 72.390625 -67.4375 C 69.640625 -71.5625 66.28125 -74.800781 62.3125 -77.15625 C 58.34375 -79.519531 53.84375 -80.503906 48.8125 -80.109375 C 43.644531 -79.703125 39.359375 -77.894531 35.953125 -74.6875 C 32.546875 -71.476562 30.210938 -67.582031 28.953125 -63 C 27.703125 -58.425781 27.515625 -53.707031 28.390625 -48.84375 C 29.242188 -44.9375 30.757812 -41.507812 32.9375 -38.5625 C 35.113281 -35.613281 38.164062 -34.09375 42.09375 -34 C 43.507812 -34.03125 45.070312 -34.492188 46.78125 -35.390625 C 48.488281 -36.285156 49.5625 -37.675781 50 -39.5625 C 49.988281 -40.507812 49.898438 -41.0625 49.734375 -41.21875 C 49.097656 -41.832031 48.972656 -42.335938 49.359375 -42.734375 C 49.742188 -43.140625 50.328125 -43.195312 51.109375 -42.90625 C 53.960938 -42.007812 56.046875 -40 57.359375 -36.875 C 58.679688 -33.75 59.375 -30.378906 59.4375 -26.765625 C 59.5 -23.148438 59 -20.078125 57.9375 -17.546875 C 55.507812 -12.148438 51.8125 -7.992188 46.84375 -5.078125 C 41.875 -2.160156 36.554688 -0.648438 30.890625 -0.546875 C 25.859375 -0.453125 20.921875 -1.660156 16.078125 -4.171875 C 11.242188 -6.679688 7.285156 -10.617188 4.203125 -15.984375 C 1.117188 -21.359375 -0.492188 -28.210938 -0.640625 -36.546875 C -0.847656 -48.328125 1.179688 -59.878906 5.453125 -71.203125 C 9.734375 -82.523438 15.554688 -93.320312 22.921875 -103.59375 C 30.296875 -113.875 38.539062 -123.375 47.65625 -132.09375 C 56.78125 -140.820312 66.082031 -148.335938 75.5625 -154.640625 C 71.164062 -154.398438 66.722656 -154.4375 62.234375 -154.75 C 57.742188 -155.070312 53.847656 -155.28125 50.546875 -155.375 C 44.097656 -155.570312 37.953125 -154.203125 32.109375 -151.265625 C 26.265625 -148.335938 22.460938 -143.484375 20.703125 -136.703125 C 20.117188 -134.171875 20.046875 -131.53125 20.484375 -128.78125 C 20.921875 -126.039062 22.097656 -123.828125 24.015625 -122.140625 C 24.984375 -121.203125 25.9375 -120.742188 26.875 -120.765625 C 27.8125 -121.097656 28.328125 -120.910156 28.421875 -120.203125 C 28.515625 -119.503906 28.09375 -118.910156 27.15625 -118.421875 C 24.039062 -116.628906 20.554688 -115.78125 16.703125 -115.875 C 12.847656 -115.96875 9.484375 -117.007812 6.609375 -119 C 0.722656 -123.289062 -2.28125 -128.976562 -2.40625 -136.0625 C -2.488281 -140.757812 -1.273438 -145.375 1.234375 -149.90625 C 3.753906 -154.4375 7.460938 -158.160156 12.359375 -161.078125 C 17.265625 -163.992188 23.253906 -165.515625 30.328125 -165.640625 C 36.929688 -165.753906 42.945312 -165.582031 48.375 -165.125 C 53.800781 -164.664062 59.191406 -164.25 64.546875 -163.875 C 69.898438 -163.5 75.71875 -163.445312 82 -163.71875 C 87.507812 -164.132812 92.613281 -164.773438 97.3125 -165.640625 C 102.007812 -166.515625 107.03125 -167 112.375 -167.09375 Z M 30.171875 -80.96875 C 33.265625 -83.6875 36.722656 -85.828125 40.546875 -87.390625 C 44.367188 -88.953125 48.476562 -89.851562 52.875 -90.09375 C 58.539062 -90.34375 64.0625 -89.375 69.4375 -87.1875 C 74.820312 -85.007812 79.515625 -81.910156 83.515625 -77.890625 C 83.503906 -78.992188 83.488281 -80.054688 83.46875 -81.078125 C 83.445312 -82.097656 83.425781 -83.082031 83.40625 -84.03125 L 82.6875 -125.296875 C 82.582031 -131.265625 83.695312 -137.097656 86.03125 -142.796875 C 88.363281 -148.492188 91.617188 -153.507812 95.796875 -157.84375 C 89.242188 -154.726562 83.054688 -150.921875 77.234375 -146.421875 C 71.421875 -141.921875 66.117188 -137.347656 61.328125 -132.703125 C 54.835938 -126.296875 48.722656 -118.519531 42.984375 -109.375 C 37.253906 -100.226562 32.984375 -90.757812 30.171875 -80.96875 Z M 30.171875 -80.96875 "/></g></g><g style="fill:#bb00aa;fill-opacity:1;"><g transform="translate(130.012167, 308.577678)"><path style="stroke:none" d="M 112.375 -167.09375 C 114.425781 -167.125 115.46875 -166.351562 115.5 -164.78125 C 115.507812 -164.15625 115.316406 -163.640625 114.921875 -163.234375 C 114.535156 -162.835938 114.191406 -162.242188 113.890625 -161.453125 C 110.566406 -153.992188 108.082031 -145.65625 106.4375 -136.4375 C 104.789062 -127.21875 103.691406 -118.039062 103.140625 -108.90625 C 102.597656 -99.78125 102.390625 -91.601562 102.515625 -84.375 C 102.648438 -77.289062 103.148438 -69.195312 104.015625 -60.09375 C 104.890625 -51 106.3125 -41.828125 108.28125 -32.578125 C 110.25 -23.335938 113.03125 -15.050781 116.625 -7.71875 C 116.945312 -6.945312 117.304688 -6.40625 117.703125 -6.09375 C 118.109375 -5.78125 118.316406 -5.234375 118.328125 -4.453125 C 118.359375 -2.878906 117.347656 -2.078125 115.296875 -2.046875 C 111.523438 -1.972656 107.117188 -2.046875 102.078125 -2.265625 C 97.046875 -2.492188 92.566406 -2.570312 88.640625 -2.5 C 84.867188 -2.4375 80.46875 -2.203125 75.4375 -1.796875 C 70.414062 -1.398438 65.9375 -1.164062 62 -1.09375 C 59.488281 -1.050781 58.21875 -1.816406 58.1875 -3.390625 C 58.164062 -4.804688 59.015625 -5.765625 60.734375 -6.265625 C 65.898438 -7.773438 70.035156 -11.738281 73.140625 -18.15625 C 76.253906 -24.582031 78.601562 -31.976562 80.1875 -40.34375 C 80.414062 -44.75 79.859375 -49.335938 78.515625 -54.109375 C 77.179688 -58.878906 75.140625 -63.320312 72.390625 -67.4375 C 69.640625 -71.5625 66.28125 -74.800781 62.3125 -77.15625 C 58.34375 -79.519531 53.84375 -80.503906 48.8125 -80.109375 C 43.644531 -79.703125 39.359375 -77.894531 35.953125 -74.6875 C 32.546875 -71.476562 30.210938 -67.582031 28.953125 -63 C 27.703125 -58.425781 27.515625 -53.707031 28.390625 -48.84375 C 29.242188 -44.9375 30.757812 -41.507812 32.9375 -38.5625 C 35.113281 -35.613281 38.164062 -34.09375 42.09375 -34 C 43.507812 -34.03125 45.070312 -34.492188 46.78125 -35.390625 C 48.488281 -36.285156 49.5625 -37.675781 50 -39.5625 C 49.988281 -40.507812 49.898438 -41.0625 49.734375 -41.21875 C 49.097656 -41.832031 48.972656 -42.335938 49.359375 -42.734375 C 49.742188 -43.140625 50.328125 -43.195312 51.109375 -42.90625 C 53.960938 -42.007812 56.046875 -40 57.359375 -36.875 C 58.679688 -33.75 59.375 -30.378906 59.4375 -26.765625 C 59.5 -23.148438 59 -20.078125 57.9375 -17.546875 C 55.507812 -12.148438 51.8125 -7.992188 46.84375 -5.078125 C 41.875 -2.160156 36.554688 -0.648438 30.890625 -0.546875 C 25.859375 -0.453125 20.921875 -1.660156 16.078125 -4.171875 C 11.242188 -6.679688 7.285156 -10.617188 4.203125 -15.984375 C 1.117188 -21.359375 -0.492188 -28.210938 -0.640625 -36.546875 C -0.847656 -48.328125 1.179688 -59.878906 5.453125 -71.203125 C 9.734375 -82.523438 15.554688 -93.320312 22.921875 -103.59375 C 30.296875 -113.875 38.539062 -123.375 47.65625 -132.09375 C 56.78125 -140.820312 66.082031 -148.335938 75.5625 -154.640625 C 71.164062 -154.398438 66.722656 -154.4375 62.234375 -154.75 C 57.742188 -155.070312 53.847656 -155.28125 50.546875 -155.375 C 44.097656 -155.570312 37.953125 -154.203125 32.109375 -151.265625 C 26.265625 -148.335938 22.460938 -143.484375 20.703125 -136.703125 C 20.117188 -134.171875 20.046875 -131.53125 20.484375 -128.78125 C 20.921875 -126.039062 22.097656 -123.828125 24.015625 -122.140625 C 24.984375 -121.203125 25.9375 -120.742188 26.875 -120.765625 C 27.8125 -121.097656 28.328125 -120.910156 28.421875 -120.203125 C 28.515625 -119.503906 28.09375 -118.910156 27.15625 -118.421875 C 24.039062 -116.628906 20.554688 -115.78125 16.703125 -115.875 C 12.847656 -115.96875 9.484375 -117.007812 6.609375 -119 C 0.722656 -123.289062 -2.28125 -128.976562 -2.40625 -136.0625 C -2.488281 -140.757812 -1.273438 -145.375 1.234375 -149.90625 C 3.753906 -154.4375 7.460938 -158.160156 12.359375 -161.078125 C 17.265625 -163.992188 23.253906 -165.515625 30.328125 -165.640625 C 36.929688 -165.753906 42.945312 -165.582031 48.375 -165.125 C 53.800781 -164.664062 59.191406 -164.25 64.546875 -163.875 C 69.898438 -163.5 75.71875 -163.445312 82 -163.71875 C 87.507812 -164.132812 92.613281 -164.773438 97.3125 -165.640625 C 102.007812 -166.515625 107.03125 -167 112.375 -167.09375 Z M 30.171875 -80.96875 C 33.265625 -83.6875 36.722656 -85.828125 40.546875 -87.390625 C 44.367188 -88.953125 48.476562 -89.851562 52.875 -90.09375 C 58.539062 -90.34375 64.0625 -89.375 69.4375 -87.1875 C 74.820312 -85.007812 79.515625 -81.910156 83.515625 -77.890625 C 83.503906 -78.992188 83.488281 -80.054688 83.46875 -81.078125 C 83.445312 -82.097656 83.425781 -83.082031 83.40625 -84.03125 L 82.6875 -125.296875 C 82.582031 -131.265625 83.695312 -137.097656 86.03125 -142.796875 C 88.363281 -148.492188 91.617188 -153.507812 95.796875 -157.84375 C 89.242188 -154.726562 83.054688 -150.921875 77.234375 -146.421875 C 71.421875 -141.921875 66.117188 -137.347656 61.328125 -132.703125 C 54.835938 -126.296875 48.722656 -118.519531 42.984375 -109.375 C 37.253906 -100.226562 32.984375 -90.757812 30.171875 -80.96875 Z M 30.171875 -80.96875 "/></g></g><g clip-rule="nonzero" clip-path="url(#135c202503)"><g clip-rule="nonzero" clip-path="url(#1db9a38072)"><path style=" stroke:none;fill-rule:nonzero;fill:#bb00aa;fill-opacity:1;" d="M 44.195312 31.351562 L 341.722656 31.351562 L 341.722656 349.796875 L 44.195312 349.796875 Z M 44.195312 31.351562 "/></g></g><g clip-rule="nonzero" clip-path="url(#cf4d13089c)"><g clip-rule="nonzero" clip-path="url(#5a536e18dd)"><g clip-rule="nonzero" clip-path="url(#9eee4a3170)"><g clip-rule="nonzero" clip-path="url(#1337f8a7ce)"><path style=" stroke:none;fill-rule:nonzero;fill:#bb00aa;fill-opacity:1;" d="M 220.53125 92.1875 C 218.292969 81.582031 221.769531 70.796875 229.667969 64.335938 C 230.382812 63.746094 241.167969 55.226562 253.457031 59.398438 C 262.160156 62.355469 266.449219 69.929688 267.539062 72.042969 C 268.144531 73.199219 269.152344 75.402344 269.738281 78.117188 C 272.234375 89.648438 264.589844 100.03125 262.78125 102.371094 C 251.507812 115.035156 240.238281 127.703125 228.964844 140.367188 C 226.15625 124.3125 223.351562 108.261719 220.53125 92.1875 "/></g></g></g></g><g clip-rule="nonzero" clip-path="url(#210552aa99)"><g clip-rule="nonzero" clip-path="url(#eba2452ff0)"><g clip-rule="nonzero" clip-path="url(#038d78d967)"><path style=" stroke:none;fill-rule:nonzero;fill:#ffffff;fill-opacity:1;" d="M 243.320312 70.175781 C 248.070312 71.566406 250.789062 76.554688 249.40625 81.289062 C 248.015625 86.039062 243.046875 88.761719 238.292969 87.375 C 233.542969 85.984375 230.820312 81.015625 232.207031 76.261719 C 233.597656 71.511719 238.570312 68.789062 243.320312 70.175781 "/></g></g></g><g clip-rule="nonzero" clip-path="url(#840afbdef7)"><g clip-rule="nonzero" clip-path="url(#d04d7ce791)"><g clip-rule="nonzero" clip-path="url(#991c3f7335)"><path style=" stroke:none;fill-rule:nonzero;fill:#8c52ff;fill-opacity:1;" d="M 249.410156 56.234375 C 237.53125 52.765625 227.21875 61.027344 226.78125 61.40625 C 218.984375 67.769531 215.523438 78.324219 217.761719 88.925781 L 226.078125 136.453125 L 259.457031 98.949219 C 262.289062 95.292969 268.640625 85.601562 266.351562 74.984375 C 265.800781 72.460938 264.859375 70.335938 264.179688 68.992188 C 262.71875 66.167969 258.449219 59.277344 250.289062 56.511719 C 249.976562 56.402344 249.691406 56.316406 249.40625 56.234375 Z M 225.78125 137.476562 C 225.664062 137.441406 225.582031 137.34375 225.546875 137.226562 L 217.109375 89.046875 C 214.828125 78.210938 218.359375 67.425781 226.347656 60.898438 C 226.820312 60.527344 237.898438 51.636719 250.449219 55.902344 C 258.839844 58.753906 263.210938 65.785156 264.703125 68.691406 C 265.410156 70.0625 266.386719 72.25 266.9375 74.84375 C 269.292969 85.738281 262.808594 95.625 259.914062 99.375 L 226.117188 137.375 C 226.039062 137.460938 225.902344 137.492188 225.78125 137.476562 "/></g></g></g></g></svg>