<?xml version="1.0" encoding="UTF-8"?>
<svg width="200" height="200" viewBox="0 0 200 200" fill="none" xmlns="http://www.w3.org/2000/svg">
  <circle cx="100" cy="100" r="100" fill="#EDE9FE"/>
  <circle cx="100" cy="80" r="40" fill="#8B5CF6"/>
  <path d="M100 130C62.5 130 45 150 45 170C45 170 69.1 175 100 175C130.9 175 155 170 155 170C155 150 137.5 130 100 130Z" fill="#8B5CF6"/>
  <path d="M70 90C70 84.4772 74.4772 80 80 80C85.5228 80 90 84.4772 90 90C90 95.5228 85.5228 100 80 100C74.4772 100 70 95.5228 70 90Z" fill="white"/>
  <path d="M110 90C110 84.4772 114.477 80 120 80C125.523 80 130 84.4772 130 90C130 95.5228 125.523 100 120 100C114.477 100 110 95.5228 110 90Z" fill="white"/>
  <path d="M100 120C100 115.5 100 110 90 110C80 110 80 115.5 80 120C80 124.5 89.5 130 100 130C110.5 130 120 124.5 120 120C120 115.5 120 110 110 110C100 110 100 115.5 100 120Z" fill="white"/>
</svg>
